<svg width="32" height="32" viewBox="0 0 32 32" fill="none" xmlns="http://www.w3.org/2000/svg">
<path d="M32 16C32 24.8366 24.8366 32 16 32C7.16344 32 0 24.8366 0 16C0 7.16344 7.16344 0 16 0C24.8366 0 32 7.16344 32 16Z" fill="white"/>
<path d="M16 6C14.9958 6 14.1818 6.81403 14.1818 7.81818V14.1818H7.81818C6.81403 14.1818 6 14.9958 6 16C6 17.0042 6.81403 17.8182 7.81818 17.8182H14.1818V24.1818C14.1818 25.186 14.9958 26 16 26C17.0042 26 17.8182 25.186 17.8182 24.1818V17.8182H24.1818C25.186 17.8182 26 17.0042 26 16C26 14.9958 25.186 14.1818 24.1818 14.1818H17.8182V7.81818C17.8182 6.81403 17.0042 6 16 6Z" fill="#9381FF"/>
</svg>